<?xml version="1.0" encoding="UTF-8" standalone="no"?>
<svg
   xmlns:dc="http://purl.org/dc/elements/1.1/"
   xmlns:cc="http://creativecommons.org/ns#"
   xmlns:rdf="http://www.w3.org/1999/02/22-rdf-syntax-ns#"
   xmlns:svg="http://www.w3.org/2000/svg"
   xmlns="http://www.w3.org/2000/svg"
   xmlns:sodipodi="http://sodipodi.sourceforge.net/DTD/sodipodi-0.dtd"
   xmlns:inkscape="http://www.inkscape.org/namespaces/inkscape"
   id="Layer_1"
   style="enable-background:new 0 0 50 50;"
   version="1.1"
   viewBox="0 0 50 50"
   xml:space="preserve"
   sodipodi:docname="timeseries.svg"
   inkscape:version="0.92.4 (5da689c313, 2019-01-14)"><metadata
     id="metadata18"><rdf:RDF><cc:Work
         rdf:about=""><dc:format>image/svg+xml</dc:format><dc:type
           rdf:resource="http://purl.org/dc/dcmitype/StillImage" /></cc:Work></rdf:RDF></metadata><defs
     id="defs16" /><sodipodi:namedview
     pagecolor="#ffffff"
     bordercolor="#666666"
     borderopacity="1"
     objecttolerance="10"
     gridtolerance="10"
     guidetolerance="10"
     inkscape:pageopacity="0"
     inkscape:pageshadow="2"
     inkscape:window-width="715"
     inkscape:window-height="480"
     id="namedview14"
     showgrid="false"
     inkscape:zoom="4.72"
     inkscape:cx="-2.2245763"
     inkscape:cy="25"
     inkscape:window-x="0"
     inkscape:window-y="0"
     inkscape:window-maximized="0"
     inkscape:current-layer="Layer_1" /><g
     id="Layer_1_1_"
     style="fill:#ffffff"><path
       d="M26,1h-2v2H1v32h6h10h1.484L13,47.795V49h2v-0.795L20.659,35H24v14h2V35h3.341L35,48.205V49h2v-1.205L31.516,35H49V3H26V1z    M9,33v-2h6v2H9z M47,33H17v-4H7v4H3V5h44V33z"
       id="path2"
       style="fill:#ffffff" /><polygon
       points="18,16.414 25,23.414 38.707,9.707 37.293,8.293 25,20.586 18,13.586 8.293,23.293 9.707,24.707  "
       id="polygon4"
       style="fill:#ffffff" /><rect
       height="6"
       width="2"
       x="31"
       y="23"
       id="rect6"
       style="fill:#ffffff" /><rect
       height="11"
       width="2"
       x="36"
       y="18"
       id="rect8"
       style="fill:#ffffff" /><rect
       height="16"
       width="2"
       x="41"
       y="13"
       id="rect10"
       style="fill:#ffffff" /></g></svg>